<?xml version="1.0" encoding="UTF-8" standalone="no"?>
<!-- Created with Inkscape (http://www.inkscape.org/) -->

<svg
   width="16mm"
   height="16mm"
   viewBox="0 0 16 16"
   version="1.1"
   id="svg1"
   sodipodi:docname="background-color.svg"
   inkscape:version="1.3.2 (091e20ef0f, 2023-11-25)"
   xmlns:inkscape="http://www.inkscape.org/namespaces/inkscape"
   xmlns:sodipodi="http://sodipodi.sourceforge.net/DTD/sodipodi-0.dtd"
   xmlns="http://www.w3.org/2000/svg"
   xmlns:svg="http://www.w3.org/2000/svg">
  <sodipodi:namedview
     id="namedview1"
     pagecolor="#ffffff"
     bordercolor="#000000"
     borderopacity="0.25"
     inkscape:showpageshadow="2"
     inkscape:pageopacity="0.0"
     inkscape:pagecheckerboard="0"
     inkscape:deskcolor="#d1d1d1"
     inkscape:document-units="mm"
     showguides="false"
     inkscape:zoom="7.2407734"
     inkscape:cx="37.426941"
     inkscape:cy="18.851577"
     inkscape:window-width="1920"
     inkscape:window-height="975"
     inkscape:window-x="0"
     inkscape:window-y="32"
     inkscape:window-maximized="1"
     inkscape:current-layer="layer1" />
  <defs
     id="defs1" />
  <g
     inkscape:label="layer 1"
     inkscape:groupmode="layer"
     id="layer1"
     transform="scale(0.08)">
    <path
       d="m 200,0 h -6.36363 L 0,193.63637 V 200 H 6.3636367 L 200,6.3636363 Z M 200,30.000002 30.000004,200 H 42.727273 L 200,42.727271 Z M 200,66.363644 66.36364,200 H 79.090914 L 200,79.090902 Z M 200,102.72728 102.72728,200 h 12.72727 L 200,115.45453 Z M 139.09092,200 H 151.8182 L 200,151.8182 V 139.09091 Z M 157.27274,0 0,157.27274 V 170 L 170,0 Z M 0,133.63637 133.63637,0 H 120.9091 L 0,120.90911 Z M 0,97.272736 97.272734,0 H 84.545461 L 0,84.545441 Z M 48.18182,0 0,48.181821 V 60.909105 L 60.909097,0 Z"
       fill="#1780c5"
       p-id="23040"
       id="path1"
       style="fill:#808080;fill-opacity:1;stroke-width:0.213068" />
    <text
       xml:space="preserve"
       style="font-size:176.389px;fill:#000000;fill-opacity:1;stroke-width:0.264583"
       x="43.909779"
       y="166.16"
       id="text1"><tspan
         sodipodi:role="line"
         id="tspan1"
         style="font-size:176.389px;fill:#000000;stroke-width:0.264583"
         x="43.909779"
         y="166.16">A</tspan></text>
  </g>
</svg>
