<?xml version="1.0" encoding="UTF-8" standalone="no"?>
<svg
   t="1716616303382"
   class="icon"
   viewBox="0 0 16 16"
   version="1.1"
   p-id="4294"
   width="16"
   height="16"
   id="svg1"
   sodipodi:docname="replace-empty.svg"
   inkscape:version="1.3.2 (091e20ef0f, 2023-11-25)"
   xmlns:inkscape="http://www.inkscape.org/namespaces/inkscape"
   xmlns:sodipodi="http://sodipodi.sourceforge.net/DTD/sodipodi-0.dtd"
   xmlns="http://www.w3.org/2000/svg"
   xmlns:svg="http://www.w3.org/2000/svg">
  <defs
     id="defs1" />
  <sodipodi:namedview
     id="namedview1"
     pagecolor="#ffffff"
     bordercolor="#000000"
     borderopacity="0.25"
     inkscape:showpageshadow="2"
     inkscape:pageopacity="0.0"
     inkscape:pagecheckerboard="0"
     inkscape:deskcolor="#d1d1d1"
     inkscape:zoom="7.08"
     inkscape:cx="5.3672316"
     inkscape:cy="12.217514"
     inkscape:window-width="1920"
     inkscape:window-height="975"
     inkscape:window-x="0"
     inkscape:window-y="32"
     inkscape:window-maximized="1"
     inkscape:current-layer="svg1" />
  <path
     id="path7"
     style="display:inline;stroke-width:0.0190662"
     inkscape:label="path4"
     d="m 9.6706754,9.9715646 c -0.2420043,0 -0.431173,0.2093824 -0.431173,0.4722794 v 4.101815 c 0,0.264121 0.1891687,0.473426 0.431173,0.473426 h 4.2613276 c 0.241586,0 0.430983,-0.209305 0.430983,-0.473426 v -4.101815 c 0,-0.262897 -0.205525,-0.4722794 -0.429461,-0.4722794 h -0.0029 z m 0.4049256,0.4892894 h 3.450335 0.0023 c 0.181372,0 0.347868,0.168801 0.347868,0.380729 v 3.306528 c 0,0.212914 -0.153342,0.381684 -0.349009,0.381684 h -3.451476 c -0.1960057,0 -0.3491984,-0.16877 -0.3491984,-0.381684 v -3.306528 c 0,-0.211928 0.1531927,-0.380729 0.3491984,-0.380729 z" />
  <path
     d="M 1.7370547,8.2275143 6.52e-8,10.825146 H 1.1499215 c 0.048081,2.975681 2.1269007,4.904958 4.7953966,5.173092 0.3415525,0.02737 0.6603584,-0.268059 0.6603584,-0.643722 0.005,-0.319682 -0.2246972,-0.594582 -0.5390138,-0.643722 l -0.00133,0.0023 C 3.9865928,14.525476 2.3962529,13.131323 2.3215251,10.828013 h 1.1499214 z"
     id="path5"
     inkscape:label="path3"
     style="stroke-width:0.0190662" />
  <path
     d="M 10.05449,0.00171301 C 9.7131464,-0.02527436 9.3943215,0.27000089 9.3943215,0.64562594 9.4167455,0.96771581 9.6371253,1.2602006 9.9320039,1.288201 11.790591,1.4762142 13.283761,2.600627 13.601063,4.5299365 h -1.075364 l 1.735533,2.6001162 1.738766,-2.5989694 H 14.800626 C 14.483304,1.9324415 12.525677,0.24186615 10.05449,0.00171301 Z"
     id="path3"
     inkscape:label="path2"
     style="stroke-width:0.0190662" />
  <path
     id="path4"
     style="display:inline;stroke-width:0.0190662"
     inkscape:label="path1"
     d="m 2.0906279,1.0361021 c -0.2415858,0 -0.4307926,0.209382 -0.4307926,0.4722792 v 4.102962 c 0,0.2643116 0.1892068,0.473426 0.4307926,0.473426 h 4.2628495 c 0.2415858,0 0.4309828,-0.2091144 0.4309828,-0.473426 V 1.5083813 C 6.7858486,1.2454841 6.5791629,1.0361021 6.354999,1.0361021 h -0.00152 z m 0.4051162,0.4892897 h 3.4528073 0.00114 c 0.1815672,0 0.3489914,0.1687874 0.3478674,0.3807286 v 3.307675 c 0,0.2130813 -0.1533303,0.3816842 -0.3490086,0.3816842 H 2.4957441 c -0.1956785,0 -0.3490086,-0.1686029 -0.3490086,-0.3816842 v -3.307675 c 0,-0.2119412 0.1533301,-0.3807286 0.3490086,-0.3807286 z" />
</svg>
