<?xml version="1.0" encoding="UTF-8" standalone="no"?>
<svg
   t="1716616303382"
   class="icon"
   viewBox="0 0 16 16"
   version="1.1"
   p-id="4294"
   width="16"
   height="16"
   id="svg1"
   sodipodi:docname="replace-filled.svg"
   inkscape:version="1.3.2 (091e20ef0f, 2023-11-25)"
   xmlns:inkscape="http://www.inkscape.org/namespaces/inkscape"
   xmlns:sodipodi="http://sodipodi.sourceforge.net/DTD/sodipodi-0.dtd"
   xmlns="http://www.w3.org/2000/svg"
   xmlns:svg="http://www.w3.org/2000/svg">
  <defs
     id="defs1" />
  <sodipodi:namedview
     id="namedview1"
     pagecolor="#ffffff"
     bordercolor="#000000"
     borderopacity="0.25"
     inkscape:showpageshadow="2"
     inkscape:pageopacity="0.0"
     inkscape:pagecheckerboard="0"
     inkscape:deskcolor="#d1d1d1"
     inkscape:zoom="20.025264"
     inkscape:cx="7.2907903"
     inkscape:cy="17.103395"
     inkscape:window-width="1920"
     inkscape:window-height="975"
     inkscape:window-x="0"
     inkscape:window-y="32"
     inkscape:window-maximized="1"
     inkscape:current-layer="svg1" />
  <path
     d="m 2.0906207,1.0361024 c -0.241586,0 -0.4307926,0.2093818 -0.4307926,0.4722792 v 4.102962 c 0,0.2643118 0.1892066,0.473426 0.4307926,0.473426 h 4.2628495 c 0.241586,0 0.4309828,-0.2091142 0.4309828,-0.473426 V 1.5083816 C 6.7858414,1.2454842 6.5791559,1.0361024 6.3549918,1.0361024 h -0.00152 z"
     style="display:inline;stroke-width:0.0190662"
     id="path4"
     inkscape:label="path1" />
  <path
     d="m 9.6706682,9.9715649 c -0.2420045,0 -0.431173,0.2093821 -0.431173,0.4722791 v 4.101815 c 0,0.264121 0.1891685,0.473426 0.431173,0.473426 h 4.2613278 c 0.241586,0 0.430983,-0.209305 0.430983,-0.473426 v -4.101815 c 0,-0.262897 -0.205525,-0.4722791 -0.429461,-0.4722791 h -0.0029 z"
     style="display:inline;stroke-width:0.0190662"
     id="path7"
     inkscape:label="path4" />
  <path
     d="M 1.7370475,8.2275146 -7.1348e-6,10.825146 H 1.1499143 c 0.048081,2.975681 2.1269007,4.904958 4.7953966,5.173092 0.3415525,0.02737 0.6603584,-0.268058 0.6603584,-0.643722 0.005,-0.319681 -0.2246972,-0.594582 -0.5390138,-0.643721 l -0.00133,0.0023 C 3.9865856,14.525476 2.3962457,13.131323 2.3215179,10.828013 h 1.1499214 z"
     id="path5"
     inkscape:label="path3"
     style="stroke-width:0.0190662" />
  <path
     d="M 10.054482,0.00171331 C 9.7131392,-0.02527406 9.3943143,0.27000119 9.3943143,0.64562624 9.4167383,0.96771611 9.6371181,1.2602009 9.9319967,1.2882013 11.790584,1.4762145 13.283754,2.6006273 13.601056,4.5299368 H 12.525691 L 14.261224,7.130053 15.999991,4.5310836 H 14.800619 C 14.483297,1.9324418 12.52567,0.24186645 10.054482,0.00171331 Z"
     id="path3"
     inkscape:label="path2"
     style="stroke-width:0.0190662" />
</svg>
