<?xml version="1.0" encoding="UTF-8" standalone="no"?>

<svg
   width="16"
   height="16"
   fill="currentColor"
   class="bi bi-replace"
   viewBox="0 0 16 16"
   version="1.1"
   id="svg1"
   sodipodi:docname="replace.svg"
   inkscape:version="1.3.2 (091e20ef0f, 2023-11-25)"
   xmlns:inkscape="http://www.inkscape.org/namespaces/inkscape"
   xmlns:sodipodi="http://sodipodi.sourceforge.net/DTD/sodipodi-0.dtd"
   xmlns:xlink="http://www.w3.org/1999/xlink"
   xmlns="http://www.w3.org/2000/svg"
   xmlns:svg="http://www.w3.org/2000/svg">
   <defs
      id="defs1">
      <pattern
         inkscape:collect="always"
         xlink:href="#pattern14"
         preserveAspectRatio="xMidYMid"
         id="pattern25"
         patternTransform="translate(-8.939e-4,0.00185681)" />
      <pattern
         inkscape:collect="always"
         xlink:href="#pattern11"
         preserveAspectRatio="xMidYMid"
         id="pattern14"
         patternTransform="translate(1.147356)" />
      <pattern
         inkscape:collect="always"
         xlink:href="#pattern10"
         preserveAspectRatio="xMidYMid"
         id="pattern12"
         patternTransform="scale(1)" />
      <pattern
         patternUnits="userSpaceOnUse"
         width="16.000596"
         height="15.998346"
         patternTransform="translate(-8.9382945e-4,0.00185681)"
         preserveAspectRatio="xMidYMid"
         id="pattern10">
         <path
            d="m 11.742894,10.342143 a 6.5,6.5 0 1 0 -1.397,1.398 h -10e-4 q 0.044,0.06 0.098,0.115 l 3.85,3.85 a 1.0002026,1.0002026 0 0 0 1.415,-1.414 l -3.85,-3.85 a 1,1 0 0 0 -0.115,-0.1 z m 0.258,-3.8439998 a 5.5,5.5 0 1 1 -11.0000002,0 5.5,5.5 0 0 1 11.0000002,0"
            id="path4" />
         <path
            style="stroke-width:0.0995894"
            d="M 0.69196631,8.7954384 6.4421511,8.7971584 4.3101114,12.315628 Z"
            id="path2" />
      </pattern>
      <pattern
         patternUnits="userSpaceOnUse"
         width="16.000595"
         height="15.998346"
         patternTransform="translate(-8.9382945e-4,0.00185681)"
         preserveAspectRatio="xMidYMid"
         id="pattern11">
         <rect
            style="display:inline;fill:url(#pattern12);stroke:none"
            width="16.000595"
            height="15.998346"
            x="0"
            y="0"
            id="rect10" />
         <path
            style="display:inline;stroke-width:0.0984428"
            d="M 12.490265,4.0938084 H 6.8008938 l 2.176527,-3.59017423 z"
            id="path3" />
      </pattern>
      <pattern
         patternUnits="userSpaceOnUse"
         width="17.147951"
         height="15.998346"
         patternTransform="translate(-1.1482499,0.00185681)"
         preserveAspectRatio="xMidYMid"
         id="pattern13">
         <rect
            style="fill:url(#pattern14);stroke:none"
            width="16.000595"
            height="15.998346"
            x="1.147356"
            y="0"
            id="rect12" />
         <rect
            style="fill:#ffffff;stroke-width:0.139264"
            id="rect3"
            width="4.8344703"
            height="2.6745238"
            x="0"
            y="6.1246834" />
         <path
            id="rect1"
            style="fill:#ffffff;stroke-width:0.139264"
            d="m 12.574031,4.0957994 a 5.5,5.5 0 0 1 0.574219,2.4023438 5.5,5.5 0 0 1 -0.02344,0.2714844 h 3.003907 V 4.0957994 Z" />
      </pattern>
   </defs>
   <sodipodi:namedview
      id="namedview1"
      pagecolor="#ffffff"
      bordercolor="#000000"
      borderopacity="0.25"
      inkscape:showpageshadow="2"
      inkscape:pageopacity="0.0"
      inkscape:pagecheckerboard="0"
      inkscape:deskcolor="#d1d1d1"
      inkscape:zoom="32"
      inkscape:cx="17.25"
      inkscape:cy="8.359375"
      inkscape:window-width="1920"
      inkscape:window-height="975"
      inkscape:window-x="0"
      inkscape:window-y="32"
      inkscape:window-maximized="1"
      inkscape:current-layer="svg1" />
   <path
      d="m 11.742,10.344 a 6.5,6.5 0 1 0 -1.397,1.398 h -0.001 q 0.044,0.06 0.098,0.115 l 3.85,3.85 a 1.0002026,1.0002026 0 0 0 1.415,-1.414 l -3.85,-3.85 a 1,1 0 0 0 -0.115,-0.1 z M 12,6.5 a 5.5,5.5 0 1 1 -11,0 5.5,5.5 0 0 1 11,0"
      id="path1"
      style="display:none" />
   <path
      id="rect25"
      style="display:inline;fill:url(#pattern25);stroke:none"
      d="M 0 0.001953125 L 0 6.1269531 L 5.6582031 6.1269531 A 17.10905 5.5 0 0 0 3.921875 4.0976562 L 14.980469 4.0976562 L 14.980469 6.7714844 L 10.75 6.7714844 L 10.75 8.8007812 L 0 8.8007812 L 0 16 L 16 16 L 16 0.001953125 L 0 0.001953125 z " />
</svg>